<mxfile host="Electron" agent="Mozilla/5.0 (Windows NT 10.0; Win64; x64) AppleWebKit/537.36 (KHTML, like Gecko) draw.io/28.0.6 Chrome/138.0.7204.100 Electron/37.2.3 Safari/537.36" version="28.0.6">
  <diagram name="PÃ¡gina-1" id="UAYcq8sjWnVJ26r9pw9-">
    <mxGraphModel dx="1002" dy="606" grid="1" gridSize="10" guides="1" tooltips="1" connect="1" arrows="1" fold="1" page="1" pageScale="1" pageWidth="3300" pageHeight="2339" background="none" math="0" shadow="0" adaptiveColors="auto">
      <root>
        <mxCell id="0" />
        <mxCell id="1" parent="0" />
        <mxCell id="kEoQ8pUHfTiqE8HYFX5m-744" value="members" style="swimlane;fontStyle=0;childLayout=stackLayout;horizontal=1;startSize=26;horizontalStack=0;resizeParent=1;resizeLast=0;collapsible=1;marginBottom=0;swimlaneFillColor=default;align=center;labelBackgroundColor=none;rounded=1;" vertex="1" parent="1">
          <mxGeometry x="40" y="40" width="170" height="208" as="geometry" />
        </mxCell>
        <mxCell id="kEoQ8pUHfTiqE8HYFX5m-745" value="id" style="shape=partialRectangle;top=0;left=0;right=0;bottom=0;align=left;verticalAlign=top;spacingTop=-2;fillColor=none;spacingLeft=64;spacingRight=4;overflow=hidden;rotatable=0;points=[[0,0.5],[1,0.5]];portConstraint=eastwest;dropTarget=0;labelBackgroundColor=none;rounded=1;" vertex="1" parent="kEoQ8pUHfTiqE8HYFX5m-744">
          <mxGeometry y="26" width="170" height="26" as="geometry" />
        </mxCell>
        <mxCell id="kEoQ8pUHfTiqE8HYFX5m-746" value="" style="shape=partialRectangle;top=0;left=0;bottom=0;fillColor=none;align=left;verticalAlign=middle;spacingLeft=4;spacingRight=4;overflow=hidden;rotatable=180;points=[];portConstraint=eastwest;part=1;labelBackgroundColor=none;rounded=1;" vertex="1" connectable="0" parent="kEoQ8pUHfTiqE8HYFX5m-745">
          <mxGeometry width="54" height="26" as="geometry" />
        </mxCell>
        <mxCell id="kEoQ8pUHfTiqE8HYFX5m-747" value="name" style="shape=partialRectangle;top=0;left=0;right=0;bottom=0;align=left;verticalAlign=top;spacingTop=-2;fillColor=none;spacingLeft=64;spacingRight=4;overflow=hidden;rotatable=0;points=[[0,0.5],[1,0.5]];portConstraint=eastwest;dropTarget=0;labelBackgroundColor=none;rounded=1;" vertex="1" parent="kEoQ8pUHfTiqE8HYFX5m-744">
          <mxGeometry y="52" width="170" height="26" as="geometry" />
        </mxCell>
        <mxCell id="kEoQ8pUHfTiqE8HYFX5m-748" value="" style="shape=partialRectangle;top=0;left=0;bottom=0;fillColor=none;align=left;verticalAlign=middle;spacingLeft=4;spacingRight=4;overflow=hidden;rotatable=180;points=[];portConstraint=eastwest;part=1;labelBackgroundColor=none;rounded=1;" vertex="1" connectable="0" parent="kEoQ8pUHfTiqE8HYFX5m-747">
          <mxGeometry width="54" height="26" as="geometry" />
        </mxCell>
        <mxCell id="kEoQ8pUHfTiqE8HYFX5m-749" value="email" style="shape=partialRectangle;top=0;left=0;right=0;bottom=0;align=left;verticalAlign=top;spacingTop=-2;fillColor=none;spacingLeft=64;spacingRight=4;overflow=hidden;rotatable=0;points=[[0,0.5],[1,0.5]];portConstraint=eastwest;dropTarget=0;labelBackgroundColor=none;rounded=1;" vertex="1" parent="kEoQ8pUHfTiqE8HYFX5m-744">
          <mxGeometry y="78" width="170" height="26" as="geometry" />
        </mxCell>
        <mxCell id="kEoQ8pUHfTiqE8HYFX5m-750" value="" style="shape=partialRectangle;top=0;left=0;bottom=0;fillColor=none;align=left;verticalAlign=middle;spacingLeft=4;spacingRight=4;overflow=hidden;rotatable=180;points=[];portConstraint=eastwest;part=1;labelBackgroundColor=none;rounded=1;" vertex="1" connectable="0" parent="kEoQ8pUHfTiqE8HYFX5m-749">
          <mxGeometry width="54" height="26" as="geometry" />
        </mxCell>
        <mxCell id="kEoQ8pUHfTiqE8HYFX5m-751" value="phone" style="shape=partialRectangle;top=0;left=0;right=0;bottom=0;align=left;verticalAlign=top;spacingTop=-2;fillColor=none;spacingLeft=64;spacingRight=4;overflow=hidden;rotatable=0;points=[[0,0.5],[1,0.5]];portConstraint=eastwest;dropTarget=0;labelBackgroundColor=none;rounded=1;" vertex="1" parent="kEoQ8pUHfTiqE8HYFX5m-744">
          <mxGeometry y="104" width="170" height="26" as="geometry" />
        </mxCell>
        <mxCell id="kEoQ8pUHfTiqE8HYFX5m-752" value="" style="shape=partialRectangle;top=0;left=0;bottom=0;fillColor=none;align=left;verticalAlign=middle;spacingLeft=4;spacingRight=4;overflow=hidden;rotatable=180;points=[];portConstraint=eastwest;part=1;labelBackgroundColor=none;rounded=1;" vertex="1" connectable="0" parent="kEoQ8pUHfTiqE8HYFX5m-751">
          <mxGeometry width="54" height="26" as="geometry" />
        </mxCell>
        <mxCell id="kEoQ8pUHfTiqE8HYFX5m-753" value="profile_image" style="shape=partialRectangle;top=0;left=0;right=0;bottom=0;align=left;verticalAlign=top;spacingTop=-2;fillColor=none;spacingLeft=64;spacingRight=4;overflow=hidden;rotatable=0;points=[[0,0.5],[1,0.5]];portConstraint=eastwest;dropTarget=0;labelBackgroundColor=none;rounded=1;" vertex="1" parent="kEoQ8pUHfTiqE8HYFX5m-744">
          <mxGeometry y="130" width="170" height="26" as="geometry" />
        </mxCell>
        <mxCell id="kEoQ8pUHfTiqE8HYFX5m-754" value="" style="shape=partialRectangle;top=0;left=0;bottom=0;fillColor=none;align=left;verticalAlign=middle;spacingLeft=4;spacingRight=4;overflow=hidden;rotatable=180;points=[];portConstraint=eastwest;part=1;labelBackgroundColor=none;rounded=1;" vertex="1" connectable="0" parent="kEoQ8pUHfTiqE8HYFX5m-753">
          <mxGeometry width="54" height="26" as="geometry" />
        </mxCell>
        <mxCell id="kEoQ8pUHfTiqE8HYFX5m-755" value="created_at" style="shape=partialRectangle;top=0;left=0;right=0;bottom=0;align=left;verticalAlign=top;spacingTop=-2;fillColor=none;spacingLeft=64;spacingRight=4;overflow=hidden;rotatable=0;points=[[0,0.5],[1,0.5]];portConstraint=eastwest;dropTarget=0;labelBackgroundColor=none;rounded=1;" vertex="1" parent="kEoQ8pUHfTiqE8HYFX5m-744">
          <mxGeometry y="156" width="170" height="26" as="geometry" />
        </mxCell>
        <mxCell id="kEoQ8pUHfTiqE8HYFX5m-756" value="" style="shape=partialRectangle;top=0;left=0;bottom=0;fillColor=none;align=left;verticalAlign=middle;spacingLeft=4;spacingRight=4;overflow=hidden;rotatable=180;points=[];portConstraint=eastwest;part=1;labelBackgroundColor=none;rounded=1;" vertex="1" connectable="0" parent="kEoQ8pUHfTiqE8HYFX5m-755">
          <mxGeometry width="54" height="26" as="geometry" />
        </mxCell>
        <mxCell id="kEoQ8pUHfTiqE8HYFX5m-757" value="updated_at" style="shape=partialRectangle;top=0;left=0;right=0;bottom=0;align=left;verticalAlign=top;spacingTop=-2;fillColor=none;spacingLeft=64;spacingRight=4;overflow=hidden;rotatable=0;points=[[0,0.5],[1,0.5]];portConstraint=eastwest;dropTarget=0;labelBackgroundColor=none;rounded=1;" vertex="1" parent="kEoQ8pUHfTiqE8HYFX5m-744">
          <mxGeometry y="182" width="170" height="26" as="geometry" />
        </mxCell>
        <mxCell id="kEoQ8pUHfTiqE8HYFX5m-758" value="" style="shape=partialRectangle;top=0;left=0;bottom=0;fillColor=none;align=left;verticalAlign=middle;spacingLeft=4;spacingRight=4;overflow=hidden;rotatable=180;points=[];portConstraint=eastwest;part=1;labelBackgroundColor=none;rounded=1;" vertex="1" connectable="0" parent="kEoQ8pUHfTiqE8HYFX5m-757">
          <mxGeometry width="54" height="26" as="geometry" />
        </mxCell>
        <mxCell id="kEoQ8pUHfTiqE8HYFX5m-759" value="carnival_blocks" style="swimlane;fontStyle=0;childLayout=stackLayout;horizontal=1;startSize=26;horizontalStack=0;resizeParent=1;resizeLast=0;collapsible=1;marginBottom=0;swimlaneFillColor=default;align=center;labelBackgroundColor=none;rounded=1;" vertex="1" parent="1">
          <mxGeometry x="250" y="40" width="265" height="312" as="geometry" />
        </mxCell>
        <mxCell id="kEoQ8pUHfTiqE8HYFX5m-760" value="id" style="shape=partialRectangle;top=0;left=0;right=0;bottom=0;align=left;verticalAlign=top;spacingTop=-2;fillColor=none;spacingLeft=64;spacingRight=4;overflow=hidden;rotatable=0;points=[[0,0.5],[1,0.5]];portConstraint=eastwest;dropTarget=0;labelBackgroundColor=none;rounded=1;" vertex="1" parent="kEoQ8pUHfTiqE8HYFX5m-759">
          <mxGeometry y="26" width="265" height="26" as="geometry" />
        </mxCell>
        <mxCell id="kEoQ8pUHfTiqE8HYFX5m-761" value="" style="shape=partialRectangle;top=0;left=0;bottom=0;fillColor=none;align=left;verticalAlign=middle;spacingLeft=4;spacingRight=4;overflow=hidden;rotatable=180;points=[];portConstraint=eastwest;part=1;labelBackgroundColor=none;rounded=1;" vertex="1" connectable="0" parent="kEoQ8pUHfTiqE8HYFX5m-760">
          <mxGeometry width="54" height="26" as="geometry" />
        </mxCell>
        <mxCell id="kEoQ8pUHfTiqE8HYFX5m-762" value="name" style="shape=partialRectangle;top=0;left=0;right=0;bottom=0;align=left;verticalAlign=top;spacingTop=-2;fillColor=none;spacingLeft=64;spacingRight=4;overflow=hidden;rotatable=0;points=[[0,0.5],[1,0.5]];portConstraint=eastwest;dropTarget=0;labelBackgroundColor=none;rounded=1;" vertex="1" parent="kEoQ8pUHfTiqE8HYFX5m-759">
          <mxGeometry y="52" width="265" height="26" as="geometry" />
        </mxCell>
        <mxCell id="kEoQ8pUHfTiqE8HYFX5m-763" value="" style="shape=partialRectangle;top=0;left=0;bottom=0;fillColor=none;align=left;verticalAlign=middle;spacingLeft=4;spacingRight=4;overflow=hidden;rotatable=180;points=[];portConstraint=eastwest;part=1;labelBackgroundColor=none;rounded=1;" vertex="1" connectable="0" parent="kEoQ8pUHfTiqE8HYFX5m-762">
          <mxGeometry width="54" height="26" as="geometry" />
        </mxCell>
        <mxCell id="kEoQ8pUHfTiqE8HYFX5m-764" value="invite_code" style="shape=partialRectangle;top=0;left=0;right=0;bottom=0;align=left;verticalAlign=top;spacingTop=-2;fillColor=none;spacingLeft=64;spacingRight=4;overflow=hidden;rotatable=0;points=[[0,0.5],[1,0.5]];portConstraint=eastwest;dropTarget=0;labelBackgroundColor=none;rounded=1;" vertex="1" parent="kEoQ8pUHfTiqE8HYFX5m-759">
          <mxGeometry y="78" width="265" height="26" as="geometry" />
        </mxCell>
        <mxCell id="kEoQ8pUHfTiqE8HYFX5m-765" value="" style="shape=partialRectangle;top=0;left=0;bottom=0;fillColor=none;align=left;verticalAlign=middle;spacingLeft=4;spacingRight=4;overflow=hidden;rotatable=180;points=[];portConstraint=eastwest;part=1;labelBackgroundColor=none;rounded=1;" vertex="1" connectable="0" parent="kEoQ8pUHfTiqE8HYFX5m-764">
          <mxGeometry width="54" height="26" as="geometry" />
        </mxCell>
        <mxCell id="kEoQ8pUHfTiqE8HYFX5m-766" value="managers_invite_code" style="shape=partialRectangle;top=0;left=0;right=0;bottom=0;align=left;verticalAlign=top;spacingTop=-2;fillColor=none;spacingLeft=64;spacingRight=4;overflow=hidden;rotatable=0;points=[[0,0.5],[1,0.5]];portConstraint=eastwest;dropTarget=0;labelBackgroundColor=none;rounded=1;" vertex="1" parent="kEoQ8pUHfTiqE8HYFX5m-759">
          <mxGeometry y="104" width="265" height="26" as="geometry" />
        </mxCell>
        <mxCell id="kEoQ8pUHfTiqE8HYFX5m-767" value="" style="shape=partialRectangle;top=0;left=0;bottom=0;fillColor=none;align=left;verticalAlign=middle;spacingLeft=4;spacingRight=4;overflow=hidden;rotatable=180;points=[];portConstraint=eastwest;part=1;labelBackgroundColor=none;rounded=1;" vertex="1" connectable="0" parent="kEoQ8pUHfTiqE8HYFX5m-766">
          <mxGeometry width="54" height="26" as="geometry" />
        </mxCell>
        <mxCell id="kEoQ8pUHfTiqE8HYFX5m-768" value="carnival_block_image" style="shape=partialRectangle;top=0;left=0;right=0;bottom=0;align=left;verticalAlign=top;spacingTop=-2;fillColor=none;spacingLeft=64;spacingRight=4;overflow=hidden;rotatable=0;points=[[0,0.5],[1,0.5]];portConstraint=eastwest;dropTarget=0;labelBackgroundColor=none;rounded=1;" vertex="1" parent="kEoQ8pUHfTiqE8HYFX5m-759">
          <mxGeometry y="130" width="265" height="26" as="geometry" />
        </mxCell>
        <mxCell id="kEoQ8pUHfTiqE8HYFX5m-769" value="" style="shape=partialRectangle;top=0;left=0;bottom=0;fillColor=none;align=left;verticalAlign=middle;spacingLeft=4;spacingRight=4;overflow=hidden;rotatable=180;points=[];portConstraint=eastwest;part=1;labelBackgroundColor=none;rounded=1;" vertex="1" connectable="0" parent="kEoQ8pUHfTiqE8HYFX5m-768">
          <mxGeometry width="54" height="26" as="geometry" />
        </mxCell>
        <mxCell id="kEoQ8pUHfTiqE8HYFX5m-770" value="created_at" style="shape=partialRectangle;top=0;left=0;right=0;bottom=0;align=left;verticalAlign=top;spacingTop=-2;fillColor=none;spacingLeft=64;spacingRight=4;overflow=hidden;rotatable=0;points=[[0,0.5],[1,0.5]];portConstraint=eastwest;dropTarget=0;labelBackgroundColor=none;rounded=1;" vertex="1" parent="kEoQ8pUHfTiqE8HYFX5m-759">
          <mxGeometry y="156" width="265" height="26" as="geometry" />
        </mxCell>
        <mxCell id="kEoQ8pUHfTiqE8HYFX5m-771" value="" style="shape=partialRectangle;top=0;left=0;bottom=0;fillColor=none;align=left;verticalAlign=middle;spacingLeft=4;spacingRight=4;overflow=hidden;rotatable=180;points=[];portConstraint=eastwest;part=1;labelBackgroundColor=none;rounded=1;" vertex="1" connectable="0" parent="kEoQ8pUHfTiqE8HYFX5m-770">
          <mxGeometry width="54" height="26" as="geometry" />
        </mxCell>
        <mxCell id="kEoQ8pUHfTiqE8HYFX5m-772" value="updated_at" style="shape=partialRectangle;top=0;left=0;right=0;bottom=0;align=left;verticalAlign=top;spacingTop=-2;fillColor=none;spacingLeft=64;spacingRight=4;overflow=hidden;rotatable=0;points=[[0,0.5],[1,0.5]];portConstraint=eastwest;dropTarget=0;labelBackgroundColor=none;rounded=1;" vertex="1" parent="kEoQ8pUHfTiqE8HYFX5m-759">
          <mxGeometry y="182" width="265" height="26" as="geometry" />
        </mxCell>
        <mxCell id="kEoQ8pUHfTiqE8HYFX5m-773" value="" style="shape=partialRectangle;top=0;left=0;bottom=0;fillColor=none;align=left;verticalAlign=middle;spacingLeft=4;spacingRight=4;overflow=hidden;rotatable=180;points=[];portConstraint=eastwest;part=1;labelBackgroundColor=none;rounded=1;" vertex="1" connectable="0" parent="kEoQ8pUHfTiqE8HYFX5m-772">
          <mxGeometry width="54" height="26" as="geometry" />
        </mxCell>
        <mxCell id="kEoQ8pUHfTiqE8HYFX5m-774" value="owner_id" style="shape=partialRectangle;top=0;left=0;right=0;bottom=0;align=left;verticalAlign=top;spacingTop=-2;fillColor=none;spacingLeft=64;spacingRight=4;overflow=hidden;rotatable=0;points=[[0,0.5],[1,0.5]];portConstraint=eastwest;dropTarget=0;labelBackgroundColor=none;rounded=1;" vertex="1" parent="kEoQ8pUHfTiqE8HYFX5m-759">
          <mxGeometry y="208" width="265" height="26" as="geometry" />
        </mxCell>
        <mxCell id="kEoQ8pUHfTiqE8HYFX5m-775" value="" style="shape=partialRectangle;top=0;left=0;bottom=0;fillColor=none;align=left;verticalAlign=middle;spacingLeft=4;spacingRight=4;overflow=hidden;rotatable=180;points=[];portConstraint=eastwest;part=1;labelBackgroundColor=none;rounded=1;" vertex="1" connectable="0" parent="kEoQ8pUHfTiqE8HYFX5m-774">
          <mxGeometry width="54" height="26" as="geometry" />
        </mxCell>
        <mxCell id="kEoQ8pUHfTiqE8HYFX5m-776" value="CONSTRAINT" style="shape=partialRectangle;top=0;left=0;right=0;bottom=0;align=left;verticalAlign=top;spacingTop=-2;fillColor=none;spacingLeft=64;spacingRight=4;overflow=hidden;rotatable=0;points=[[0,0.5],[1,0.5]];portConstraint=eastwest;dropTarget=0;labelBackgroundColor=none;rounded=1;" vertex="1" parent="kEoQ8pUHfTiqE8HYFX5m-759">
          <mxGeometry y="234" width="265" height="26" as="geometry" />
        </mxCell>
        <mxCell id="kEoQ8pUHfTiqE8HYFX5m-777" value="" style="shape=partialRectangle;top=0;left=0;bottom=0;fillColor=none;align=left;verticalAlign=middle;spacingLeft=4;spacingRight=4;overflow=hidden;rotatable=180;points=[];portConstraint=eastwest;part=1;labelBackgroundColor=none;rounded=1;" vertex="1" connectable="0" parent="kEoQ8pUHfTiqE8HYFX5m-776">
          <mxGeometry width="54" height="26" as="geometry" />
        </mxCell>
        <mxCell id="kEoQ8pUHfTiqE8HYFX5m-778" value="CONSTRAINT" style="shape=partialRectangle;top=0;left=0;right=0;bottom=0;align=left;verticalAlign=top;spacingTop=-2;fillColor=none;spacingLeft=64;spacingRight=4;overflow=hidden;rotatable=0;points=[[0,0.5],[1,0.5]];portConstraint=eastwest;dropTarget=0;labelBackgroundColor=none;rounded=1;" vertex="1" parent="kEoQ8pUHfTiqE8HYFX5m-759">
          <mxGeometry y="260" width="265" height="26" as="geometry" />
        </mxCell>
        <mxCell id="kEoQ8pUHfTiqE8HYFX5m-779" value="" style="shape=partialRectangle;top=0;left=0;bottom=0;fillColor=none;align=left;verticalAlign=middle;spacingLeft=4;spacingRight=4;overflow=hidden;rotatable=180;points=[];portConstraint=eastwest;part=1;labelBackgroundColor=none;rounded=1;" vertex="1" connectable="0" parent="kEoQ8pUHfTiqE8HYFX5m-778">
          <mxGeometry width="54" height="26" as="geometry" />
        </mxCell>
        <mxCell id="kEoQ8pUHfTiqE8HYFX5m-780" value="REFERENCES" style="shape=partialRectangle;top=0;left=0;right=0;bottom=0;align=left;verticalAlign=top;spacingTop=-2;fillColor=none;spacingLeft=64;spacingRight=4;overflow=hidden;rotatable=0;points=[[0,0.5],[1,0.5]];portConstraint=eastwest;dropTarget=0;labelBackgroundColor=none;rounded=1;" vertex="1" parent="kEoQ8pUHfTiqE8HYFX5m-759">
          <mxGeometry y="286" width="265" height="26" as="geometry" />
        </mxCell>
        <mxCell id="kEoQ8pUHfTiqE8HYFX5m-781" value="" style="shape=partialRectangle;top=0;left=0;bottom=0;fillColor=none;align=left;verticalAlign=middle;spacingLeft=4;spacingRight=4;overflow=hidden;rotatable=180;points=[];portConstraint=eastwest;part=1;labelBackgroundColor=none;rounded=1;" vertex="1" connectable="0" parent="kEoQ8pUHfTiqE8HYFX5m-780">
          <mxGeometry width="54" height="26" as="geometry" />
        </mxCell>
        <mxCell id="kEoQ8pUHfTiqE8HYFX5m-782" value="meetings" style="swimlane;fontStyle=0;childLayout=stackLayout;horizontal=1;startSize=26;horizontalStack=0;resizeParent=1;resizeLast=0;collapsible=1;marginBottom=0;swimlaneFillColor=default;align=center;labelBackgroundColor=none;rounded=1;" vertex="1" parent="1">
          <mxGeometry x="555" y="40" width="278" height="312" as="geometry" />
        </mxCell>
        <mxCell id="kEoQ8pUHfTiqE8HYFX5m-783" value="id" style="shape=partialRectangle;top=0;left=0;right=0;bottom=0;align=left;verticalAlign=top;spacingTop=-2;fillColor=none;spacingLeft=64;spacingRight=4;overflow=hidden;rotatable=0;points=[[0,0.5],[1,0.5]];portConstraint=eastwest;dropTarget=0;labelBackgroundColor=none;rounded=1;" vertex="1" parent="kEoQ8pUHfTiqE8HYFX5m-782">
          <mxGeometry y="26" width="278" height="26" as="geometry" />
        </mxCell>
        <mxCell id="kEoQ8pUHfTiqE8HYFX5m-784" value="" style="shape=partialRectangle;top=0;left=0;bottom=0;fillColor=none;align=left;verticalAlign=middle;spacingLeft=4;spacingRight=4;overflow=hidden;rotatable=180;points=[];portConstraint=eastwest;part=1;labelBackgroundColor=none;rounded=1;" vertex="1" connectable="0" parent="kEoQ8pUHfTiqE8HYFX5m-783">
          <mxGeometry width="54" height="26" as="geometry" />
        </mxCell>
        <mxCell id="kEoQ8pUHfTiqE8HYFX5m-785" value="carnival_block_id" style="shape=partialRectangle;top=0;left=0;right=0;bottom=0;align=left;verticalAlign=top;spacingTop=-2;fillColor=none;spacingLeft=64;spacingRight=4;overflow=hidden;rotatable=0;points=[[0,0.5],[1,0.5]];portConstraint=eastwest;dropTarget=0;labelBackgroundColor=none;rounded=1;" vertex="1" parent="kEoQ8pUHfTiqE8HYFX5m-782">
          <mxGeometry y="52" width="278" height="26" as="geometry" />
        </mxCell>
        <mxCell id="kEoQ8pUHfTiqE8HYFX5m-786" value="" style="shape=partialRectangle;top=0;left=0;bottom=0;fillColor=none;align=left;verticalAlign=middle;spacingLeft=4;spacingRight=4;overflow=hidden;rotatable=180;points=[];portConstraint=eastwest;part=1;labelBackgroundColor=none;rounded=1;" vertex="1" connectable="0" parent="kEoQ8pUHfTiqE8HYFX5m-785">
          <mxGeometry width="54" height="26" as="geometry" />
        </mxCell>
        <mxCell id="kEoQ8pUHfTiqE8HYFX5m-787" value="name" style="shape=partialRectangle;top=0;left=0;right=0;bottom=0;align=left;verticalAlign=top;spacingTop=-2;fillColor=none;spacingLeft=64;spacingRight=4;overflow=hidden;rotatable=0;points=[[0,0.5],[1,0.5]];portConstraint=eastwest;dropTarget=0;labelBackgroundColor=none;rounded=1;" vertex="1" parent="kEoQ8pUHfTiqE8HYFX5m-782">
          <mxGeometry y="78" width="278" height="26" as="geometry" />
        </mxCell>
        <mxCell id="kEoQ8pUHfTiqE8HYFX5m-788" value="" style="shape=partialRectangle;top=0;left=0;bottom=0;fillColor=none;align=left;verticalAlign=middle;spacingLeft=4;spacingRight=4;overflow=hidden;rotatable=180;points=[];portConstraint=eastwest;part=1;labelBackgroundColor=none;rounded=1;" vertex="1" connectable="0" parent="kEoQ8pUHfTiqE8HYFX5m-787">
          <mxGeometry width="54" height="26" as="geometry" />
        </mxCell>
        <mxCell id="kEoQ8pUHfTiqE8HYFX5m-789" value="description" style="shape=partialRectangle;top=0;left=0;right=0;bottom=0;align=left;verticalAlign=top;spacingTop=-2;fillColor=none;spacingLeft=64;spacingRight=4;overflow=hidden;rotatable=0;points=[[0,0.5],[1,0.5]];portConstraint=eastwest;dropTarget=0;labelBackgroundColor=none;rounded=1;" vertex="1" parent="kEoQ8pUHfTiqE8HYFX5m-782">
          <mxGeometry y="104" width="278" height="26" as="geometry" />
        </mxCell>
        <mxCell id="kEoQ8pUHfTiqE8HYFX5m-790" value="" style="shape=partialRectangle;top=0;left=0;bottom=0;fillColor=none;align=left;verticalAlign=middle;spacingLeft=4;spacingRight=4;overflow=hidden;rotatable=180;points=[];portConstraint=eastwest;part=1;labelBackgroundColor=none;rounded=1;" vertex="1" connectable="0" parent="kEoQ8pUHfTiqE8HYFX5m-789">
          <mxGeometry width="54" height="26" as="geometry" />
        </mxCell>
        <mxCell id="kEoQ8pUHfTiqE8HYFX5m-791" value="location" style="shape=partialRectangle;top=0;left=0;right=0;bottom=0;align=left;verticalAlign=top;spacingTop=-2;fillColor=none;spacingLeft=64;spacingRight=4;overflow=hidden;rotatable=0;points=[[0,0.5],[1,0.5]];portConstraint=eastwest;dropTarget=0;labelBackgroundColor=none;rounded=1;" vertex="1" parent="kEoQ8pUHfTiqE8HYFX5m-782">
          <mxGeometry y="130" width="278" height="26" as="geometry" />
        </mxCell>
        <mxCell id="kEoQ8pUHfTiqE8HYFX5m-792" value="" style="shape=partialRectangle;top=0;left=0;bottom=0;fillColor=none;align=left;verticalAlign=middle;spacingLeft=4;spacingRight=4;overflow=hidden;rotatable=180;points=[];portConstraint=eastwest;part=1;labelBackgroundColor=none;rounded=1;" vertex="1" connectable="0" parent="kEoQ8pUHfTiqE8HYFX5m-791">
          <mxGeometry width="54" height="26" as="geometry" />
        </mxCell>
        <mxCell id="kEoQ8pUHfTiqE8HYFX5m-793" value="meeting_code" style="shape=partialRectangle;top=0;left=0;right=0;bottom=0;align=left;verticalAlign=top;spacingTop=-2;fillColor=none;spacingLeft=64;spacingRight=4;overflow=hidden;rotatable=0;points=[[0,0.5],[1,0.5]];portConstraint=eastwest;dropTarget=0;labelBackgroundColor=none;rounded=1;" vertex="1" parent="kEoQ8pUHfTiqE8HYFX5m-782">
          <mxGeometry y="156" width="278" height="26" as="geometry" />
        </mxCell>
        <mxCell id="kEoQ8pUHfTiqE8HYFX5m-794" value="" style="shape=partialRectangle;top=0;left=0;bottom=0;fillColor=none;align=left;verticalAlign=middle;spacingLeft=4;spacingRight=4;overflow=hidden;rotatable=180;points=[];portConstraint=eastwest;part=1;labelBackgroundColor=none;rounded=1;" vertex="1" connectable="0" parent="kEoQ8pUHfTiqE8HYFX5m-793">
          <mxGeometry width="54" height="26" as="geometry" />
        </mxCell>
        <mxCell id="kEoQ8pUHfTiqE8HYFX5m-795" value="meeting_date_time" style="shape=partialRectangle;top=0;left=0;right=0;bottom=0;align=left;verticalAlign=top;spacingTop=-2;fillColor=none;spacingLeft=64;spacingRight=4;overflow=hidden;rotatable=0;points=[[0,0.5],[1,0.5]];portConstraint=eastwest;dropTarget=0;labelBackgroundColor=none;rounded=1;" vertex="1" parent="kEoQ8pUHfTiqE8HYFX5m-782">
          <mxGeometry y="182" width="278" height="26" as="geometry" />
        </mxCell>
        <mxCell id="kEoQ8pUHfTiqE8HYFX5m-796" value="" style="shape=partialRectangle;top=0;left=0;bottom=0;fillColor=none;align=left;verticalAlign=middle;spacingLeft=4;spacingRight=4;overflow=hidden;rotatable=180;points=[];portConstraint=eastwest;part=1;labelBackgroundColor=none;rounded=1;" vertex="1" connectable="0" parent="kEoQ8pUHfTiqE8HYFX5m-795">
          <mxGeometry width="54" height="26" as="geometry" />
        </mxCell>
        <mxCell id="kEoQ8pUHfTiqE8HYFX5m-797" value="created_at" style="shape=partialRectangle;top=0;left=0;right=0;bottom=0;align=left;verticalAlign=top;spacingTop=-2;fillColor=none;spacingLeft=64;spacingRight=4;overflow=hidden;rotatable=0;points=[[0,0.5],[1,0.5]];portConstraint=eastwest;dropTarget=0;labelBackgroundColor=none;rounded=1;" vertex="1" parent="kEoQ8pUHfTiqE8HYFX5m-782">
          <mxGeometry y="208" width="278" height="26" as="geometry" />
        </mxCell>
        <mxCell id="kEoQ8pUHfTiqE8HYFX5m-798" value="" style="shape=partialRectangle;top=0;left=0;bottom=0;fillColor=none;align=left;verticalAlign=middle;spacingLeft=4;spacingRight=4;overflow=hidden;rotatable=180;points=[];portConstraint=eastwest;part=1;labelBackgroundColor=none;rounded=1;" vertex="1" connectable="0" parent="kEoQ8pUHfTiqE8HYFX5m-797">
          <mxGeometry width="54" height="26" as="geometry" />
        </mxCell>
        <mxCell id="kEoQ8pUHfTiqE8HYFX5m-799" value="updated_at" style="shape=partialRectangle;top=0;left=0;right=0;bottom=0;align=left;verticalAlign=top;spacingTop=-2;fillColor=none;spacingLeft=64;spacingRight=4;overflow=hidden;rotatable=0;points=[[0,0.5],[1,0.5]];portConstraint=eastwest;dropTarget=0;labelBackgroundColor=none;rounded=1;" vertex="1" parent="kEoQ8pUHfTiqE8HYFX5m-782">
          <mxGeometry y="234" width="278" height="26" as="geometry" />
        </mxCell>
        <mxCell id="kEoQ8pUHfTiqE8HYFX5m-800" value="" style="shape=partialRectangle;top=0;left=0;bottom=0;fillColor=none;align=left;verticalAlign=middle;spacingLeft=4;spacingRight=4;overflow=hidden;rotatable=180;points=[];portConstraint=eastwest;part=1;labelBackgroundColor=none;rounded=1;" vertex="1" connectable="0" parent="kEoQ8pUHfTiqE8HYFX5m-799">
          <mxGeometry width="54" height="26" as="geometry" />
        </mxCell>
        <mxCell id="kEoQ8pUHfTiqE8HYFX5m-801" value="CONSTRAINT" style="shape=partialRectangle;top=0;left=0;right=0;bottom=0;align=left;verticalAlign=top;spacingTop=-2;fillColor=none;spacingLeft=64;spacingRight=4;overflow=hidden;rotatable=0;points=[[0,0.5],[1,0.5]];portConstraint=eastwest;dropTarget=0;labelBackgroundColor=none;rounded=1;" vertex="1" parent="kEoQ8pUHfTiqE8HYFX5m-782">
          <mxGeometry y="260" width="278" height="26" as="geometry" />
        </mxCell>
        <mxCell id="kEoQ8pUHfTiqE8HYFX5m-802" value="" style="shape=partialRectangle;top=0;left=0;bottom=0;fillColor=none;align=left;verticalAlign=middle;spacingLeft=4;spacingRight=4;overflow=hidden;rotatable=180;points=[];portConstraint=eastwest;part=1;labelBackgroundColor=none;rounded=1;" vertex="1" connectable="0" parent="kEoQ8pUHfTiqE8HYFX5m-801">
          <mxGeometry width="54" height="26" as="geometry" />
        </mxCell>
        <mxCell id="kEoQ8pUHfTiqE8HYFX5m-803" value="REFERENCES" style="shape=partialRectangle;top=0;left=0;right=0;bottom=0;align=left;verticalAlign=top;spacingTop=-2;fillColor=none;spacingLeft=64;spacingRight=4;overflow=hidden;rotatable=0;points=[[0,0.5],[1,0.5]];portConstraint=eastwest;dropTarget=0;labelBackgroundColor=none;rounded=1;" vertex="1" parent="kEoQ8pUHfTiqE8HYFX5m-782">
          <mxGeometry y="286" width="278" height="26" as="geometry" />
        </mxCell>
        <mxCell id="kEoQ8pUHfTiqE8HYFX5m-804" value="" style="shape=partialRectangle;top=0;left=0;bottom=0;fillColor=none;align=left;verticalAlign=middle;spacingLeft=4;spacingRight=4;overflow=hidden;rotatable=180;points=[];portConstraint=eastwest;part=1;labelBackgroundColor=none;rounded=1;" vertex="1" connectable="0" parent="kEoQ8pUHfTiqE8HYFX5m-803">
          <mxGeometry width="54" height="26" as="geometry" />
        </mxCell>
        <mxCell id="kEoQ8pUHfTiqE8HYFX5m-805" value="meeting_presences" style="swimlane;fontStyle=0;childLayout=stackLayout;horizontal=1;startSize=26;horizontalStack=0;resizeParent=1;resizeLast=0;collapsible=1;marginBottom=0;swimlaneFillColor=default;align=center;labelBackgroundColor=none;rounded=1;" vertex="1" parent="1">
          <mxGeometry x="873" y="40" width="287" height="364" as="geometry" />
        </mxCell>
        <mxCell id="kEoQ8pUHfTiqE8HYFX5m-806" value="id" style="shape=partialRectangle;top=0;left=0;right=0;bottom=0;align=left;verticalAlign=top;spacingTop=-2;fillColor=none;spacingLeft=64;spacingRight=4;overflow=hidden;rotatable=0;points=[[0,0.5],[1,0.5]];portConstraint=eastwest;dropTarget=0;labelBackgroundColor=none;rounded=1;" vertex="1" parent="kEoQ8pUHfTiqE8HYFX5m-805">
          <mxGeometry y="26" width="287" height="26" as="geometry" />
        </mxCell>
        <mxCell id="kEoQ8pUHfTiqE8HYFX5m-807" value="" style="shape=partialRectangle;top=0;left=0;bottom=0;fillColor=none;align=left;verticalAlign=middle;spacingLeft=4;spacingRight=4;overflow=hidden;rotatable=180;points=[];portConstraint=eastwest;part=1;labelBackgroundColor=none;rounded=1;" vertex="1" connectable="0" parent="kEoQ8pUHfTiqE8HYFX5m-806">
          <mxGeometry width="54" height="26" as="geometry" />
        </mxCell>
        <mxCell id="kEoQ8pUHfTiqE8HYFX5m-808" value="member_id" style="shape=partialRectangle;top=0;left=0;right=0;bottom=0;align=left;verticalAlign=top;spacingTop=-2;fillColor=none;spacingLeft=64;spacingRight=4;overflow=hidden;rotatable=0;points=[[0,0.5],[1,0.5]];portConstraint=eastwest;dropTarget=0;labelBackgroundColor=none;rounded=1;" vertex="1" parent="kEoQ8pUHfTiqE8HYFX5m-805">
          <mxGeometry y="52" width="287" height="26" as="geometry" />
        </mxCell>
        <mxCell id="kEoQ8pUHfTiqE8HYFX5m-809" value="" style="shape=partialRectangle;top=0;left=0;bottom=0;fillColor=none;align=left;verticalAlign=middle;spacingLeft=4;spacingRight=4;overflow=hidden;rotatable=180;points=[];portConstraint=eastwest;part=1;labelBackgroundColor=none;rounded=1;" vertex="1" connectable="0" parent="kEoQ8pUHfTiqE8HYFX5m-808">
          <mxGeometry width="54" height="26" as="geometry" />
        </mxCell>
        <mxCell id="kEoQ8pUHfTiqE8HYFX5m-810" value="meeting_id" style="shape=partialRectangle;top=0;left=0;right=0;bottom=0;align=left;verticalAlign=top;spacingTop=-2;fillColor=none;spacingLeft=64;spacingRight=4;overflow=hidden;rotatable=0;points=[[0,0.5],[1,0.5]];portConstraint=eastwest;dropTarget=0;labelBackgroundColor=none;rounded=1;" vertex="1" parent="kEoQ8pUHfTiqE8HYFX5m-805">
          <mxGeometry y="78" width="287" height="26" as="geometry" />
        </mxCell>
        <mxCell id="kEoQ8pUHfTiqE8HYFX5m-811" value="" style="shape=partialRectangle;top=0;left=0;bottom=0;fillColor=none;align=left;verticalAlign=middle;spacingLeft=4;spacingRight=4;overflow=hidden;rotatable=180;points=[];portConstraint=eastwest;part=1;labelBackgroundColor=none;rounded=1;" vertex="1" connectable="0" parent="kEoQ8pUHfTiqE8HYFX5m-810">
          <mxGeometry width="54" height="26" as="geometry" />
        </mxCell>
        <mxCell id="kEoQ8pUHfTiqE8HYFX5m-812" value="carnival_block_id" style="shape=partialRectangle;top=0;left=0;right=0;bottom=0;align=left;verticalAlign=top;spacingTop=-2;fillColor=none;spacingLeft=64;spacingRight=4;overflow=hidden;rotatable=0;points=[[0,0.5],[1,0.5]];portConstraint=eastwest;dropTarget=0;labelBackgroundColor=none;rounded=1;" vertex="1" parent="kEoQ8pUHfTiqE8HYFX5m-805">
          <mxGeometry y="104" width="287" height="26" as="geometry" />
        </mxCell>
        <mxCell id="kEoQ8pUHfTiqE8HYFX5m-813" value="" style="shape=partialRectangle;top=0;left=0;bottom=0;fillColor=none;align=left;verticalAlign=middle;spacingLeft=4;spacingRight=4;overflow=hidden;rotatable=180;points=[];portConstraint=eastwest;part=1;labelBackgroundColor=none;rounded=1;" vertex="1" connectable="0" parent="kEoQ8pUHfTiqE8HYFX5m-812">
          <mxGeometry width="54" height="26" as="geometry" />
        </mxCell>
        <mxCell id="kEoQ8pUHfTiqE8HYFX5m-814" value="is_present" style="shape=partialRectangle;top=0;left=0;right=0;bottom=0;align=left;verticalAlign=top;spacingTop=-2;fillColor=none;spacingLeft=64;spacingRight=4;overflow=hidden;rotatable=0;points=[[0,0.5],[1,0.5]];portConstraint=eastwest;dropTarget=0;labelBackgroundColor=none;rounded=1;" vertex="1" parent="kEoQ8pUHfTiqE8HYFX5m-805">
          <mxGeometry y="130" width="287" height="26" as="geometry" />
        </mxCell>
        <mxCell id="kEoQ8pUHfTiqE8HYFX5m-815" value="" style="shape=partialRectangle;top=0;left=0;bottom=0;fillColor=none;align=left;verticalAlign=middle;spacingLeft=4;spacingRight=4;overflow=hidden;rotatable=180;points=[];portConstraint=eastwest;part=1;labelBackgroundColor=none;rounded=1;" vertex="1" connectable="0" parent="kEoQ8pUHfTiqE8HYFX5m-814">
          <mxGeometry width="54" height="26" as="geometry" />
        </mxCell>
        <mxCell id="kEoQ8pUHfTiqE8HYFX5m-816" value="created_at" style="shape=partialRectangle;top=0;left=0;right=0;bottom=0;align=left;verticalAlign=top;spacingTop=-2;fillColor=none;spacingLeft=64;spacingRight=4;overflow=hidden;rotatable=0;points=[[0,0.5],[1,0.5]];portConstraint=eastwest;dropTarget=0;labelBackgroundColor=none;rounded=1;" vertex="1" parent="kEoQ8pUHfTiqE8HYFX5m-805">
          <mxGeometry y="156" width="287" height="26" as="geometry" />
        </mxCell>
        <mxCell id="kEoQ8pUHfTiqE8HYFX5m-817" value="" style="shape=partialRectangle;top=0;left=0;bottom=0;fillColor=none;align=left;verticalAlign=middle;spacingLeft=4;spacingRight=4;overflow=hidden;rotatable=180;points=[];portConstraint=eastwest;part=1;labelBackgroundColor=none;rounded=1;" vertex="1" connectable="0" parent="kEoQ8pUHfTiqE8HYFX5m-816">
          <mxGeometry width="54" height="26" as="geometry" />
        </mxCell>
        <mxCell id="kEoQ8pUHfTiqE8HYFX5m-818" value="updated_at" style="shape=partialRectangle;top=0;left=0;right=0;bottom=0;align=left;verticalAlign=top;spacingTop=-2;fillColor=none;spacingLeft=64;spacingRight=4;overflow=hidden;rotatable=0;points=[[0,0.5],[1,0.5]];portConstraint=eastwest;dropTarget=0;labelBackgroundColor=none;rounded=1;" vertex="1" parent="kEoQ8pUHfTiqE8HYFX5m-805">
          <mxGeometry y="182" width="287" height="26" as="geometry" />
        </mxCell>
        <mxCell id="kEoQ8pUHfTiqE8HYFX5m-819" value="" style="shape=partialRectangle;top=0;left=0;bottom=0;fillColor=none;align=left;verticalAlign=middle;spacingLeft=4;spacingRight=4;overflow=hidden;rotatable=180;points=[];portConstraint=eastwest;part=1;labelBackgroundColor=none;rounded=1;" vertex="1" connectable="0" parent="kEoQ8pUHfTiqE8HYFX5m-818">
          <mxGeometry width="54" height="26" as="geometry" />
        </mxCell>
        <mxCell id="kEoQ8pUHfTiqE8HYFX5m-820" value="CONSTRAINT" style="shape=partialRectangle;top=0;left=0;right=0;bottom=0;align=left;verticalAlign=top;spacingTop=-2;fillColor=none;spacingLeft=64;spacingRight=4;overflow=hidden;rotatable=0;points=[[0,0.5],[1,0.5]];portConstraint=eastwest;dropTarget=0;labelBackgroundColor=none;rounded=1;" vertex="1" parent="kEoQ8pUHfTiqE8HYFX5m-805">
          <mxGeometry y="208" width="287" height="26" as="geometry" />
        </mxCell>
        <mxCell id="kEoQ8pUHfTiqE8HYFX5m-821" value="" style="shape=partialRectangle;top=0;left=0;bottom=0;fillColor=none;align=left;verticalAlign=middle;spacingLeft=4;spacingRight=4;overflow=hidden;rotatable=180;points=[];portConstraint=eastwest;part=1;labelBackgroundColor=none;rounded=1;" vertex="1" connectable="0" parent="kEoQ8pUHfTiqE8HYFX5m-820">
          <mxGeometry width="54" height="26" as="geometry" />
        </mxCell>
        <mxCell id="kEoQ8pUHfTiqE8HYFX5m-822" value="REFERENCES" style="shape=partialRectangle;top=0;left=0;right=0;bottom=0;align=left;verticalAlign=top;spacingTop=-2;fillColor=none;spacingLeft=64;spacingRight=4;overflow=hidden;rotatable=0;points=[[0,0.5],[1,0.5]];portConstraint=eastwest;dropTarget=0;labelBackgroundColor=none;rounded=1;" vertex="1" parent="kEoQ8pUHfTiqE8HYFX5m-805">
          <mxGeometry y="234" width="287" height="26" as="geometry" />
        </mxCell>
        <mxCell id="kEoQ8pUHfTiqE8HYFX5m-823" value="" style="shape=partialRectangle;top=0;left=0;bottom=0;fillColor=none;align=left;verticalAlign=middle;spacingLeft=4;spacingRight=4;overflow=hidden;rotatable=180;points=[];portConstraint=eastwest;part=1;labelBackgroundColor=none;rounded=1;" vertex="1" connectable="0" parent="kEoQ8pUHfTiqE8HYFX5m-822">
          <mxGeometry width="54" height="26" as="geometry" />
        </mxCell>
        <mxCell id="kEoQ8pUHfTiqE8HYFX5m-824" value="CONSTRAINT" style="shape=partialRectangle;top=0;left=0;right=0;bottom=0;align=left;verticalAlign=top;spacingTop=-2;fillColor=none;spacingLeft=64;spacingRight=4;overflow=hidden;rotatable=0;points=[[0,0.5],[1,0.5]];portConstraint=eastwest;dropTarget=0;labelBackgroundColor=none;rounded=1;" vertex="1" parent="kEoQ8pUHfTiqE8HYFX5m-805">
          <mxGeometry y="260" width="287" height="26" as="geometry" />
        </mxCell>
        <mxCell id="kEoQ8pUHfTiqE8HYFX5m-825" value="" style="shape=partialRectangle;top=0;left=0;bottom=0;fillColor=none;align=left;verticalAlign=middle;spacingLeft=4;spacingRight=4;overflow=hidden;rotatable=180;points=[];portConstraint=eastwest;part=1;labelBackgroundColor=none;rounded=1;" vertex="1" connectable="0" parent="kEoQ8pUHfTiqE8HYFX5m-824">
          <mxGeometry width="54" height="26" as="geometry" />
        </mxCell>
        <mxCell id="kEoQ8pUHfTiqE8HYFX5m-826" value="REFERENCES" style="shape=partialRectangle;top=0;left=0;right=0;bottom=0;align=left;verticalAlign=top;spacingTop=-2;fillColor=none;spacingLeft=64;spacingRight=4;overflow=hidden;rotatable=0;points=[[0,0.5],[1,0.5]];portConstraint=eastwest;dropTarget=0;labelBackgroundColor=none;rounded=1;" vertex="1" parent="kEoQ8pUHfTiqE8HYFX5m-805">
          <mxGeometry y="286" width="287" height="26" as="geometry" />
        </mxCell>
        <mxCell id="kEoQ8pUHfTiqE8HYFX5m-827" value="" style="shape=partialRectangle;top=0;left=0;bottom=0;fillColor=none;align=left;verticalAlign=middle;spacingLeft=4;spacingRight=4;overflow=hidden;rotatable=180;points=[];portConstraint=eastwest;part=1;labelBackgroundColor=none;rounded=1;" vertex="1" connectable="0" parent="kEoQ8pUHfTiqE8HYFX5m-826">
          <mxGeometry width="54" height="26" as="geometry" />
        </mxCell>
        <mxCell id="kEoQ8pUHfTiqE8HYFX5m-828" value="CONSTRAINT" style="shape=partialRectangle;top=0;left=0;right=0;bottom=0;align=left;verticalAlign=top;spacingTop=-2;fillColor=none;spacingLeft=64;spacingRight=4;overflow=hidden;rotatable=0;points=[[0,0.5],[1,0.5]];portConstraint=eastwest;dropTarget=0;labelBackgroundColor=none;rounded=1;" vertex="1" parent="kEoQ8pUHfTiqE8HYFX5m-805">
          <mxGeometry y="312" width="287" height="26" as="geometry" />
        </mxCell>
        <mxCell id="kEoQ8pUHfTiqE8HYFX5m-829" value="" style="shape=partialRectangle;top=0;left=0;bottom=0;fillColor=none;align=left;verticalAlign=middle;spacingLeft=4;spacingRight=4;overflow=hidden;rotatable=180;points=[];portConstraint=eastwest;part=1;labelBackgroundColor=none;rounded=1;" vertex="1" connectable="0" parent="kEoQ8pUHfTiqE8HYFX5m-828">
          <mxGeometry width="54" height="26" as="geometry" />
        </mxCell>
        <mxCell id="kEoQ8pUHfTiqE8HYFX5m-830" value="REFERENCES" style="shape=partialRectangle;top=0;left=0;right=0;bottom=0;align=left;verticalAlign=top;spacingTop=-2;fillColor=none;spacingLeft=64;spacingRight=4;overflow=hidden;rotatable=0;points=[[0,0.5],[1,0.5]];portConstraint=eastwest;dropTarget=0;labelBackgroundColor=none;rounded=1;" vertex="1" parent="kEoQ8pUHfTiqE8HYFX5m-805">
          <mxGeometry y="338" width="287" height="26" as="geometry" />
        </mxCell>
        <mxCell id="kEoQ8pUHfTiqE8HYFX5m-831" value="" style="shape=partialRectangle;top=0;left=0;bottom=0;fillColor=none;align=left;verticalAlign=middle;spacingLeft=4;spacingRight=4;overflow=hidden;rotatable=180;points=[];portConstraint=eastwest;part=1;labelBackgroundColor=none;rounded=1;" vertex="1" connectable="0" parent="kEoQ8pUHfTiqE8HYFX5m-830">
          <mxGeometry width="54" height="26" as="geometry" />
        </mxCell>
        <mxCell id="kEoQ8pUHfTiqE8HYFX5m-832" value="carnival_block_members" style="swimlane;fontStyle=0;childLayout=stackLayout;horizontal=1;startSize=26;horizontalStack=0;resizeParent=1;resizeLast=0;collapsible=1;marginBottom=0;swimlaneFillColor=default;align=center;labelBackgroundColor=none;rounded=1;" vertex="1" parent="1">
          <mxGeometry x="1200" y="40" width="292" height="312" as="geometry" />
        </mxCell>
        <mxCell id="kEoQ8pUHfTiqE8HYFX5m-833" value="id" style="shape=partialRectangle;top=0;left=0;right=0;bottom=0;align=left;verticalAlign=top;spacingTop=-2;fillColor=none;spacingLeft=64;spacingRight=4;overflow=hidden;rotatable=0;points=[[0,0.5],[1,0.5]];portConstraint=eastwest;dropTarget=0;labelBackgroundColor=none;rounded=1;" vertex="1" parent="kEoQ8pUHfTiqE8HYFX5m-832">
          <mxGeometry y="26" width="292" height="26" as="geometry" />
        </mxCell>
        <mxCell id="kEoQ8pUHfTiqE8HYFX5m-834" value="" style="shape=partialRectangle;top=0;left=0;bottom=0;fillColor=none;align=left;verticalAlign=middle;spacingLeft=4;spacingRight=4;overflow=hidden;rotatable=180;points=[];portConstraint=eastwest;part=1;labelBackgroundColor=none;rounded=1;" vertex="1" connectable="0" parent="kEoQ8pUHfTiqE8HYFX5m-833">
          <mxGeometry width="54" height="26" as="geometry" />
        </mxCell>
        <mxCell id="kEoQ8pUHfTiqE8HYFX5m-835" value="carnival_block_id" style="shape=partialRectangle;top=0;left=0;right=0;bottom=0;align=left;verticalAlign=top;spacingTop=-2;fillColor=none;spacingLeft=64;spacingRight=4;overflow=hidden;rotatable=0;points=[[0,0.5],[1,0.5]];portConstraint=eastwest;dropTarget=0;labelBackgroundColor=none;rounded=1;" vertex="1" parent="kEoQ8pUHfTiqE8HYFX5m-832">
          <mxGeometry y="52" width="292" height="26" as="geometry" />
        </mxCell>
        <mxCell id="kEoQ8pUHfTiqE8HYFX5m-836" value="" style="shape=partialRectangle;top=0;left=0;bottom=0;fillColor=none;align=left;verticalAlign=middle;spacingLeft=4;spacingRight=4;overflow=hidden;rotatable=180;points=[];portConstraint=eastwest;part=1;labelBackgroundColor=none;rounded=1;" vertex="1" connectable="0" parent="kEoQ8pUHfTiqE8HYFX5m-835">
          <mxGeometry width="54" height="26" as="geometry" />
        </mxCell>
        <mxCell id="kEoQ8pUHfTiqE8HYFX5m-837" value="member_id" style="shape=partialRectangle;top=0;left=0;right=0;bottom=0;align=left;verticalAlign=top;spacingTop=-2;fillColor=none;spacingLeft=64;spacingRight=4;overflow=hidden;rotatable=0;points=[[0,0.5],[1,0.5]];portConstraint=eastwest;dropTarget=0;labelBackgroundColor=none;rounded=1;" vertex="1" parent="kEoQ8pUHfTiqE8HYFX5m-832">
          <mxGeometry y="78" width="292" height="26" as="geometry" />
        </mxCell>
        <mxCell id="kEoQ8pUHfTiqE8HYFX5m-838" value="" style="shape=partialRectangle;top=0;left=0;bottom=0;fillColor=none;align=left;verticalAlign=middle;spacingLeft=4;spacingRight=4;overflow=hidden;rotatable=180;points=[];portConstraint=eastwest;part=1;labelBackgroundColor=none;rounded=1;" vertex="1" connectable="0" parent="kEoQ8pUHfTiqE8HYFX5m-837">
          <mxGeometry width="54" height="26" as="geometry" />
        </mxCell>
        <mxCell id="kEoQ8pUHfTiqE8HYFX5m-839" value="created_at" style="shape=partialRectangle;top=0;left=0;right=0;bottom=0;align=left;verticalAlign=top;spacingTop=-2;fillColor=none;spacingLeft=64;spacingRight=4;overflow=hidden;rotatable=0;points=[[0,0.5],[1,0.5]];portConstraint=eastwest;dropTarget=0;labelBackgroundColor=none;rounded=1;" vertex="1" parent="kEoQ8pUHfTiqE8HYFX5m-832">
          <mxGeometry y="104" width="292" height="26" as="geometry" />
        </mxCell>
        <mxCell id="kEoQ8pUHfTiqE8HYFX5m-840" value="" style="shape=partialRectangle;top=0;left=0;bottom=0;fillColor=none;align=left;verticalAlign=middle;spacingLeft=4;spacingRight=4;overflow=hidden;rotatable=180;points=[];portConstraint=eastwest;part=1;labelBackgroundColor=none;rounded=1;" vertex="1" connectable="0" parent="kEoQ8pUHfTiqE8HYFX5m-839">
          <mxGeometry width="54" height="26" as="geometry" />
        </mxCell>
        <mxCell id="kEoQ8pUHfTiqE8HYFX5m-841" value="updated_at" style="shape=partialRectangle;top=0;left=0;right=0;bottom=0;align=left;verticalAlign=top;spacingTop=-2;fillColor=none;spacingLeft=64;spacingRight=4;overflow=hidden;rotatable=0;points=[[0,0.5],[1,0.5]];portConstraint=eastwest;dropTarget=0;labelBackgroundColor=none;rounded=1;" vertex="1" parent="kEoQ8pUHfTiqE8HYFX5m-832">
          <mxGeometry y="130" width="292" height="26" as="geometry" />
        </mxCell>
        <mxCell id="kEoQ8pUHfTiqE8HYFX5m-842" value="" style="shape=partialRectangle;top=0;left=0;bottom=0;fillColor=none;align=left;verticalAlign=middle;spacingLeft=4;spacingRight=4;overflow=hidden;rotatable=180;points=[];portConstraint=eastwest;part=1;labelBackgroundColor=none;rounded=1;" vertex="1" connectable="0" parent="kEoQ8pUHfTiqE8HYFX5m-841">
          <mxGeometry width="54" height="26" as="geometry" />
        </mxCell>
        <mxCell id="kEoQ8pUHfTiqE8HYFX5m-843" value="role" style="shape=partialRectangle;top=0;left=0;right=0;bottom=0;align=left;verticalAlign=top;spacingTop=-2;fillColor=none;spacingLeft=64;spacingRight=4;overflow=hidden;rotatable=0;points=[[0,0.5],[1,0.5]];portConstraint=eastwest;dropTarget=0;labelBackgroundColor=none;rounded=1;" vertex="1" parent="kEoQ8pUHfTiqE8HYFX5m-832">
          <mxGeometry y="156" width="292" height="26" as="geometry" />
        </mxCell>
        <mxCell id="kEoQ8pUHfTiqE8HYFX5m-844" value="" style="shape=partialRectangle;top=0;left=0;bottom=0;fillColor=none;align=left;verticalAlign=middle;spacingLeft=4;spacingRight=4;overflow=hidden;rotatable=180;points=[];portConstraint=eastwest;part=1;labelBackgroundColor=none;rounded=1;" vertex="1" connectable="0" parent="kEoQ8pUHfTiqE8HYFX5m-843">
          <mxGeometry width="54" height="26" as="geometry" />
        </mxCell>
        <mxCell id="kEoQ8pUHfTiqE8HYFX5m-845" value="CHECK" style="shape=partialRectangle;top=0;left=0;right=0;bottom=0;align=left;verticalAlign=top;spacingTop=-2;fillColor=none;spacingLeft=64;spacingRight=4;overflow=hidden;rotatable=0;points=[[0,0.5],[1,0.5]];portConstraint=eastwest;dropTarget=0;labelBackgroundColor=none;rounded=1;" vertex="1" parent="kEoQ8pUHfTiqE8HYFX5m-832">
          <mxGeometry y="182" width="292" height="26" as="geometry" />
        </mxCell>
        <mxCell id="kEoQ8pUHfTiqE8HYFX5m-846" value="" style="shape=partialRectangle;top=0;left=0;bottom=0;fillColor=none;align=left;verticalAlign=middle;spacingLeft=4;spacingRight=4;overflow=hidden;rotatable=180;points=[];portConstraint=eastwest;part=1;labelBackgroundColor=none;rounded=1;" vertex="1" connectable="0" parent="kEoQ8pUHfTiqE8HYFX5m-845">
          <mxGeometry width="54" height="26" as="geometry" />
        </mxCell>
        <mxCell id="kEoQ8pUHfTiqE8HYFX5m-847" value="CONSTRAINT" style="shape=partialRectangle;top=0;left=0;right=0;bottom=0;align=left;verticalAlign=top;spacingTop=-2;fillColor=none;spacingLeft=64;spacingRight=4;overflow=hidden;rotatable=0;points=[[0,0.5],[1,0.5]];portConstraint=eastwest;dropTarget=0;labelBackgroundColor=none;rounded=1;" vertex="1" parent="kEoQ8pUHfTiqE8HYFX5m-832">
          <mxGeometry y="208" width="292" height="26" as="geometry" />
        </mxCell>
        <mxCell id="kEoQ8pUHfTiqE8HYFX5m-848" value="" style="shape=partialRectangle;top=0;left=0;bottom=0;fillColor=none;align=left;verticalAlign=middle;spacingLeft=4;spacingRight=4;overflow=hidden;rotatable=180;points=[];portConstraint=eastwest;part=1;labelBackgroundColor=none;rounded=1;" vertex="1" connectable="0" parent="kEoQ8pUHfTiqE8HYFX5m-847">
          <mxGeometry width="54" height="26" as="geometry" />
        </mxCell>
        <mxCell id="kEoQ8pUHfTiqE8HYFX5m-849" value="REFERENCES" style="shape=partialRectangle;top=0;left=0;right=0;bottom=0;align=left;verticalAlign=top;spacingTop=-2;fillColor=none;spacingLeft=64;spacingRight=4;overflow=hidden;rotatable=0;points=[[0,0.5],[1,0.5]];portConstraint=eastwest;dropTarget=0;labelBackgroundColor=none;rounded=1;" vertex="1" parent="kEoQ8pUHfTiqE8HYFX5m-832">
          <mxGeometry y="234" width="292" height="26" as="geometry" />
        </mxCell>
        <mxCell id="kEoQ8pUHfTiqE8HYFX5m-850" value="" style="shape=partialRectangle;top=0;left=0;bottom=0;fillColor=none;align=left;verticalAlign=middle;spacingLeft=4;spacingRight=4;overflow=hidden;rotatable=180;points=[];portConstraint=eastwest;part=1;labelBackgroundColor=none;rounded=1;" vertex="1" connectable="0" parent="kEoQ8pUHfTiqE8HYFX5m-849">
          <mxGeometry width="54" height="26" as="geometry" />
        </mxCell>
        <mxCell id="kEoQ8pUHfTiqE8HYFX5m-851" value="CONSTRAINT" style="shape=partialRectangle;top=0;left=0;right=0;bottom=0;align=left;verticalAlign=top;spacingTop=-2;fillColor=none;spacingLeft=64;spacingRight=4;overflow=hidden;rotatable=0;points=[[0,0.5],[1,0.5]];portConstraint=eastwest;dropTarget=0;labelBackgroundColor=none;rounded=1;" vertex="1" parent="kEoQ8pUHfTiqE8HYFX5m-832">
          <mxGeometry y="260" width="292" height="26" as="geometry" />
        </mxCell>
        <mxCell id="kEoQ8pUHfTiqE8HYFX5m-852" value="" style="shape=partialRectangle;top=0;left=0;bottom=0;fillColor=none;align=left;verticalAlign=middle;spacingLeft=4;spacingRight=4;overflow=hidden;rotatable=180;points=[];portConstraint=eastwest;part=1;labelBackgroundColor=none;rounded=1;" vertex="1" connectable="0" parent="kEoQ8pUHfTiqE8HYFX5m-851">
          <mxGeometry width="54" height="26" as="geometry" />
        </mxCell>
        <mxCell id="kEoQ8pUHfTiqE8HYFX5m-853" value="REFERENCES" style="shape=partialRectangle;top=0;left=0;right=0;bottom=0;align=left;verticalAlign=top;spacingTop=-2;fillColor=none;spacingLeft=64;spacingRight=4;overflow=hidden;rotatable=0;points=[[0,0.5],[1,0.5]];portConstraint=eastwest;dropTarget=0;labelBackgroundColor=none;rounded=1;" vertex="1" parent="kEoQ8pUHfTiqE8HYFX5m-832">
          <mxGeometry y="286" width="292" height="26" as="geometry" />
        </mxCell>
        <mxCell id="kEoQ8pUHfTiqE8HYFX5m-854" value="" style="shape=partialRectangle;top=0;left=0;bottom=0;fillColor=none;align=left;verticalAlign=middle;spacingLeft=4;spacingRight=4;overflow=hidden;rotatable=180;points=[];portConstraint=eastwest;part=1;labelBackgroundColor=none;rounded=1;" vertex="1" connectable="0" parent="kEoQ8pUHfTiqE8HYFX5m-853">
          <mxGeometry width="54" height="26" as="geometry" />
        </mxCell>
      </root>
    </mxGraphModel>
  </diagram>
</mxfile>
